<svg data-v-0dd9719b="" version="1.0" xmlns="http://www.w3.org/2000/svg" xmlns:xlink="http://www.w3.org/1999/xlink" width="100%" height="100%" viewBox="0 0 340.000000 250.000000" preserveAspectRatio="xMidYMid meet" color-interpolation-filters="sRGB" style="margin: auto;"> <rect data-v-0dd9719b="" x="0" y="0" width="100%" height="100%" fill="#ffffff" fill-opacity="0" class="background"></rect> <!----> <g data-v-0dd9719b="" fill="#fc51fa" class="icon-text-wrapper icon-svg-group iconsvg" transform="translate(59.224998474121094,95)"><g class="iconsvg-imagesvg" transform="translate(0,0)" mask="url(#1ad53386-ead7-452a-b38b-562e075eb6f9)"><g><rect fill="#fc51fa" fill-opacity="0" stroke-width="2" x="0" y="0" width="60" height="60" class="image-rect"></rect> <svg filter="url(#colors9442862507)" x="0" y="0" width="60" height="60" filtersec="colorsf8356767594" class="image-svg-svg primary" style="overflow: visible;"><svg xmlns="http://www.w3.org/2000/svg" viewBox="0.7999999999999998 0.7999999999999998 102.7 102.7"><path d="M52.2 101.5L2.8 52.2 52.2 2.8l49.3 49.3-49.3 49.4zM91.6 62L52.2 22.6 12.7 62m69 9.9L52.2 42.3 22.6 71.9m49.3 9.8L52.2 62 32.4 81.7" fill="none" stroke="#202121" stroke-width="4" stroke-miterlimit="10"></path></svg></svg> <defs><filter id="colors9442862507"><feColorMatrix type="matrix" values="0 0 0 0 0.984375  0 0 0 0 0.31640625  0 0 0 0 0.9765625  0 0 0 1 0" class="icon-fecolormatrix"></feColorMatrix></filter> <filter id="colorsf8356767594"><feColorMatrix type="matrix" values="0 0 0 0 0.99609375  0 0 0 0 0.99609375  0 0 0 0 0.99609375  0 0 0 1 0" class="icon-fecolormatrix"></feColorMatrix></filter> <filter id="colorsb9538774268"><feColorMatrix type="matrix" values="0 0 0 0 0  0 0 0 0 0  0 0 0 0 0  0 0 0 1 0" class="icon-fecolormatrix"></feColorMatrix></filter></defs></g><rect v-gra="id" width="72" height="72" transform="translate(-6, -6)" style="pointer-events:none;" fill="url(#sippykZjhjIn5HbhWKPNX)"></rect></g> <g transform="translate(67,8.360000610351562)"><g data-gra="path-name" fill-rule="" class="tp-name iconsvg-namesvg" fill="url(#65672afe-b193-4078-8e8a-5760d41232e5)"><g transform="scale(1)"><g><path d="M10.89-23.16Q9.73-23.16 8.94-23.71 8.14-24.25 8.14-25.3L8.14-25.3Q8.14-26.57 9.54-27.53 10.95-28.49 12.54-28.49L12.54-28.49Q14.9-28.49 14.9-26.46L14.9-26.46Q14.9-25.3 13.64-24.23 12.38-23.16 10.89-23.16L10.89-23.16ZM4.4 1.65Q2.09 1.65 0.82 0.28-0.44-1.1-0.44-3.25L-0.44-3.25Q-0.44-5.45 0.8-9.21 2.04-12.98 3.93-15.84 5.83-18.7 7.75-18.7L7.75-18.7Q8.47-18.7 8.94-18.29 9.4-17.88 9.4-17.11L9.4-17.11Q9.4-16.61 8.96-15.76 8.53-14.9 7.54-13.31L7.54-13.31Q5.78-10.39 4.76-8.17 3.74-5.94 3.74-3.96L3.74-3.96Q3.74-2.25 4.34-1.65 4.95-1.04 6.21-1.04L6.21-1.04Q10.56-1.04 14.85-9.46L14.85-9.46 15.68-8.58Q13.75-3.74 10.78-1.04 7.81 1.65 4.4 1.65L4.4 1.65ZM31.95 1.1Q29.87 1.1 28.71 0.06 27.55-0.99 27.55-2.69L27.55-2.69Q27.55-3.41 27.8-4.34 28.05-5.28 28.32-6.21L28.32-6.21Q29.09-8.74 29.09-9.96L29.09-9.96Q29.09-11.05 28.55-11.58 27.99-12.1 27.17-12.1L27.17-12.1Q24.26-12.1 21.29-8.44 18.32-4.79 14.9 0.82L14.9 0.82Q12.54 0.82 11.33-0.77L11.33-0.77 11.82-2.15Q15.07-10.01 15.07-13.8L15.07-13.8Q15.51-14.3 16.34-14.71 17.16-15.13 17.93-15.13L17.93-15.13Q18.87-15.13 19.36-14.69 19.86-14.24 19.86-13.47L19.86-13.47Q19.86-11.99 18.92-8.58L18.92-8.58Q21.39-11.88 24.06-13.97 26.73-16.06 29.31-16.06L29.31-16.06Q31.52-16.06 32.73-14.55 33.94-13.04 33.94-10.95L33.94-10.95Q33.94-9.73 33.63-8.63 33.33-7.54 32.73-6.16L32.73-6.16Q31.79-3.85 31.79-2.69L31.79-2.69Q31.79-1.87 32.17-1.49 32.56-1.1 33.11-1.1L33.11-1.1Q34.92-1.1 37.04-3.6 39.16-6.11 40.87-9.52L40.87-9.52 41.8-8.74Q39.82-4.18 37.43-1.54 35.03 1.1 31.95 1.1L31.95 1.1ZM45.87 2.81Q42.02 2.81 40.18 0.58 38.34-1.65 38.34-4.73L38.34-4.73Q38.34-6.88 39.11-7.73 39.88-8.58 40.84-9.02 41.8-9.46 41.97-9.63L41.97-9.63Q45.48-13.26 47.3-17.16L47.3-17.16 47.3-17.71Q47.3-19.75 47.99-20.73 48.68-21.73 49.78-21.73L49.78-21.73Q50.98-21.73 51.09-20.63L51.09-20.63Q51.09-20.35 50.96-19.8 50.82-19.25 50.82-18.64L50.82-18.64Q50.82-17.6 51.15-16.45 51.48-15.29 52.2-13.31L52.2-13.31Q53.08-10.89 53.54-9.13 54.01-7.37 54.01-5.55L54.01-5.55Q54.01-4.62 53.79-3.3L53.79-3.3Q57.53-4.24 60.28-9.52L60.28-9.52 60.94-9.02Q59.84-5.88 57.89-3.96 55.94-2.04 53.3-1.65L53.3-1.65Q52.42 0.55 50.44 1.68 48.45 2.81 45.87 2.81L45.87 2.81ZM49.45-3.41Q49.61-3.9 49.61-5.12L49.61-5.12Q49.55-6.88 49.23-8.58 48.9-10.29 48.23-12.98L48.23-12.98 47.74-14.96Q45.05-10.29 42.96-8.09L42.96-8.09Q43.89-6.49 45.59-5.2 47.3-3.9 49.45-3.41L49.45-3.41ZM45.48 0.39Q46.59 0.39 47.55-0.17 48.51-0.71 49.01-1.76L49.01-1.76Q46.86-2.2 45.05-3.44 43.23-4.67 42.13-6.11L42.13-6.11Q41.36-5.94 41.36-4.62L41.36-4.62Q41.36-2.64 42.46-1.13 43.56 0.39 45.48 0.39L45.48 0.39ZM64.95 3.08Q61.98 3.08 60.2 1.24 58.41-0.6 58.41-4.18L58.41-4.18Q58.41-7.7 60.2-11.05 61.98-14.41 64.84-16.5 67.7-18.59 70.62-18.59L70.62-18.59Q72.82-18.59 73.89-17.49 74.97-16.39 74.97-14.74L74.97-14.74Q74.97-13.09 74.17-11.69 73.37-10.29 72.22-10.29L72.22-10.29Q71.17-10.29 70.51-11.33L70.51-11.33Q71.17-11.77 71.72-12.87 72.27-13.97 72.27-15.46L72.27-15.46Q72.27-16.39 71.22-16.39L71.22-16.39Q69.47-16.39 67.43-14.3 65.39-12.21 64.02-9.24 62.65-6.27 62.65-3.85L62.65-3.85Q62.65-2.09 63.53-0.91 64.41 0.28 66.55 0.28L66.55 0.28Q68.64 0.28 70.92-0.94 73.2-2.15 75.19-4.37 77.17-6.6 78.32-9.52L78.32-9.52 79.42-8.53Q78.1-5.22 75.76-2.58 73.42 0.06 70.56 1.57 67.7 3.08 64.95 3.08L64.95 3.08ZM87.23 1.43Q85.2 1.43 83.93 0.36 82.67-0.71 82.67-2.53L82.67-2.53Q82.67-3.58 83.08-4.81 83.49-6.05 84.32-7.81L84.32-7.81Q85.03-9.35 85.42-10.42 85.8-11.49 85.8-12.32L85.8-12.32Q85.8-14.41 83.05-15.84L83.05-15.84Q81.95-13.09 80.49-10.29 79.04-7.48 77.88-5.55L77.88-5.55 77.06-7.15Q79.59-11.66 81.51-17.11L81.51-17.11Q80.96-17.66 80.96-18.59L80.96-18.59Q80.96-20.02 81.84-21.29 82.72-22.55 83.55-22.55L83.55-22.55Q84.1-22.55 84.45-21.89 84.81-21.23 84.81-20.79L84.81-20.79Q84.81-20.57 84.56-19.83 84.32-19.09 84.21-18.75L84.21-18.75Q84.26-18.37 84.65-18.01 85.03-17.66 86.08-17L86.08-17Q88-15.73 89.07-14.55 90.15-13.37 90.15-11.38L90.15-11.38Q90.15-10.18 89.73-8.96 89.32-7.75 88.5-6.05L88.5-6.05Q87.29-3.63 87.29-2.58L87.29-2.58Q87.29-1.32 88.66-1.32L88.66-1.32Q90.31-1.32 92.26-2.64 94.22-3.96 95.84-5.86 97.46-7.75 98.23-9.4L98.23-9.4 99.55-8.42Q98.45-5.94 96.47-3.69 94.49-1.43 92.04 0 89.6 1.43 87.23 1.43L87.23 1.43ZM107.91-23.16Q106.76-23.16 105.96-23.71 105.16-24.25 105.16-25.3L105.16-25.3Q105.16-26.57 106.56-27.53 107.97-28.49 109.56-28.49L109.56-28.49Q111.93-28.49 111.93-26.46L111.93-26.46Q111.93-25.3 110.66-24.23 109.4-23.16 107.91-23.16L107.91-23.16ZM101.42 1.65Q99.11 1.65 97.85 0.28 96.58-1.1 96.58-3.25L96.58-3.25Q96.58-5.45 97.82-9.21 99.06-12.98 100.95-15.84 102.85-18.7 104.78-18.7L104.78-18.7Q105.49-18.7 105.96-18.29 106.43-17.88 106.43-17.11L106.43-17.11Q106.43-16.61 105.99-15.76 105.55-14.9 104.56-13.31L104.56-13.31Q102.8-10.39 101.78-8.17 100.76-5.94 100.76-3.96L100.76-3.96Q100.76-2.25 101.37-1.65 101.97-1.04 103.24-1.04L103.24-1.04Q107.58-1.04 111.87-9.46L111.87-9.46 112.7-8.58Q110.77-3.74 107.8-1.04 104.83 1.65 101.42 1.65L101.42 1.65ZM116.22 4.01Q113.14 4.01 111.49 2.09 109.84 0.17 109.84-3.3L109.84-3.3Q109.84-8.47 113.14-17.13 116.44-25.8 120.67-32.53 124.91-39.27 127.33-39.27L127.33-39.27Q128.37-39.27 128.95-38.12 129.53-36.96 129.58-35.48L129.58-35.48Q129.58-32.84 127.77-28.57 125.95-24.31 123.01-20.41 120.07-16.5 116.82-14.63L116.82-14.63Q116.05-13.2 115.2-9.93 114.35-6.66 114.35-3.63L114.35-3.63Q114.35-1.21 115.03 0.25 115.72 1.71 117.21 1.71L117.21 1.71Q118.64 1.71 120.29 0.41 121.94-0.88 122.98-2.81L122.98-2.81Q121-3.9 119.93-5.86 118.86-7.81 118.86-10.06L118.86-10.06Q118.86-12.71 120.29-14.38 121.72-16.06 123.86-16.06L123.86-16.06Q125.73-16.06 126.83-14.66 127.93-13.26 127.93-10.56L127.93-10.56Q127.93-7.21 126.28-3.63L126.28-3.63 127.27-3.58Q129.8-3.58 131.45-5.33 133.1-7.09 134.37-9.68L134.37-9.68 135.19-8.53Q133.71-5.12 131.7-3.49 129.69-1.87 126.56-1.87L126.56-1.87Q125.79-1.87 125.4-1.93L125.4-1.93Q123.7 0.77 121.39 2.39 119.08 4.01 116.22 4.01L116.22 4.01ZM117.87-18.09Q120.12-20.13 122.21-23.4 124.3-26.68 125.62-29.73 126.94-32.78 127-34.1L127-34.1Q126.28-33.83 124.52-31.35 122.76-28.88 120.89-25.27 119.02-21.67 117.87-18.09L117.87-18.09ZM123.92-4.62Q124.91-6.88 124.91-9.29L124.91-9.29Q124.91-11.17 124.47-12.15 124.03-13.14 123.31-13.14L123.31-13.14Q122.6-13.14 122.07-12.15 121.55-11.17 121.55-9.79L121.55-9.79Q121.55-8.42 122.13-6.96 122.71-5.5 123.92-4.62L123.92-4.62ZM139.31 2.42Q135.85 2.42 133.93 0.55 132-1.32 132-4.24L132-4.24Q132-7.42 134.15-11.14 136.29-14.85 139.65-17.35 143-19.86 146.25-19.86L146.25-19.86Q147.95-19.86 149.11-19 150.26-18.15 150.26-16.17L150.26-16.17Q150.26-13.53 148.22-11.19 146.19-8.86 142.97-7.37 139.75-5.88 136.4-5.5L136.4-5.5Q136.29-4.95 136.29-4.24L136.29-4.24Q136.29-2.81 137.09-1.38 137.88 0.06 140.53 0.06L140.53 0.06Q143.88 0.06 147.37-2.67 150.87-5.39 153.01-9.46L153.01-9.46 154.11-8.58Q151.91-3.63 147.81-0.6 143.72 2.42 139.31 2.42L139.31 2.42ZM137-7.54Q138.99-7.75 141.43-9.13 143.88-10.51 145.59-12.51 147.29-14.52 147.29-16.45L147.29-16.45Q147.29-17.05 147.07-17.27 146.85-17.49 146.35-17.49L146.35-17.49Q144.76-17.49 142.86-15.98 140.97-14.46 139.37-12.15 137.78-9.85 137-7.54L137-7.54Z" transform="translate(0.4399999976158142, 39.27000045776367)"></path></g> <!----> <!----> <!----> <!----> <!----> <!----> <!----></g></g> <!----></g></g><defs v-gra="od"><linearGradient x1="0" y1="1" x2="0" y2="0" id="65672afe-b193-4078-8e8a-5760d41232e5"><stop offset="0%" stop-color="#fc51fa"></stop><stop offset="50%" stop-color="#fdaf42"></stop><stop offset="100%" stop-color="#2cd4ff"></stop></linearGradient><filter id="42443b3f1de60f6b6fd3b6a9844b4764" filterUnits="objectBoundingBox"><feColorMatrix type="matrix" values="0 0 0 0 0.99609375  0 0 0 0 0.99609375  0 0 0 0 0.99609375  0 0 0 1 0"></feColorMatrix></filter></defs><defs v-gra="id"><filter id="974204d4-29a3-47c6-a717-85221a02c9a9" filterUnits="userSpaceOnUse"><feColorMatrix type="matrix" values="0 0 0 0 0.99609375  0 0 0 0 0.99609375  0 0 0 0 0.99609375  0 0 0 1 0"></feColorMatrix></filter><linearGradient x1="0" y1="1" x2="0" y2="0" id="sippykZjhjIn5HbhWKPNX"><stop offset="0%" stop-color="#fc51fa"></stop><stop offset="50%" stop-color="#fdaf42"></stop><stop offset="100%" stop-color="#2cd4ff"></stop></linearGradient><filter id="42443b3f1de60f6b6fd3b6a9844b4764" filterUnits="objectBoundingBox"><feColorMatrix type="matrix" values="0 0 0 0 0.99609375  0 0 0 0 0.99609375  0 0 0 0 0.99609375  0 0 0 1 0"></feColorMatrix></filter></defs><mask v-gra="im" id="1ad53386-ead7-452a-b38b-562e075eb6f9"><g class="iconsvg-imagesvg" filter="url(#974204d4-29a3-47c6-a717-85221a02c9a9)"><g><rect fill="#fc51fa" fill-opacity="0" stroke-width="2" x="0" y="0" width="60" height="60" class="image-rect"></rect> <svg x="0" y="0" width="60" height="60" filtersec="colorsf8356767594" class="image-svg-svg primary" style="overflow: visible;"><svg xmlns="http://www.w3.org/2000/svg" viewBox="0.7999999999999998 0.7999999999999998 102.7 102.7"><path d="M52.2 101.5L2.8 52.2 52.2 2.8l49.3 49.3-49.3 49.4zM91.6 62L52.2 22.6 12.7 62m69 9.9L52.2 42.3 22.6 71.9m49.3 9.8L52.2 62 32.4 81.7" fill="none" stroke="#202121" stroke-width="4" stroke-miterlimit="10"></path></svg></svg> <defs><filter id="colors9442862507"><feColorMatrix type="matrix" values="0 0 0 0 0.984375  0 0 0 0 0.31640625  0 0 0 0 0.9765625  0 0 0 1 0" class="icon-fecolormatrix"></feColorMatrix></filter> <filter id="colorsf8356767594"><feColorMatrix type="matrix" values="0 0 0 0 0.99609375  0 0 0 0 0.99609375  0 0 0 0 0.99609375  0 0 0 1 0" class="icon-fecolormatrix"></feColorMatrix></filter> <filter id="colorsb9538774268"><feColorMatrix type="matrix" values="0 0 0 0 0  0 0 0 0 0  0 0 0 0 0  0 0 0 1 0" class="icon-fecolormatrix"></feColorMatrix></filter></defs></g></g></mask></svg>
